<mxfile host="app.diagrams.net" modified="2023-09-19T14:49:14.393Z" agent="Mozilla/5.0 (Windows NT 10.0; Win64; x64) AppleWebKit/537.36 (KHTML, like Gecko) Chrome/116.0.0.0 Safari/537.36" version="21.7.5" etag="IA39d04Mr7u39MttW__Z" type="github">
  <diagram name="PÃ¡gina-1" id="lCHbctK1z55nOljc5WtX">
    <mxGraphModel>
      <root>
        <mxCell id="0" />
        <mxCell id="1" parent="0" />
      </root>
    </mxGraphModel>
  </diagram>
</mxfile>
